<?xml version="1.0" encoding="UTF-8"?>
<svg height="128px" viewBox="0 0 128 128" width="128px" xmlns="http://www.w3.org/2000/svg" xmlns:xlink="http://www.w3.org/1999/xlink">
    <filter id="a" height="100%" width="100%" x="0%" y="0%">
        <feColorMatrix color-interpolation-filters="sRGB" values="0 0 0 0 1 0 0 0 0 1 0 0 0 0 1 0 0 0 1 0"/>
    </filter>
    <clipPath id="b">
        <rect height="128" width="128"/>
    </clipPath>
    <clipPath id="c">
        <rect height="128" width="128"/>
    </clipPath>
    <mask id="d">
        <g filter="url(#a)">
            <g clip-path="url(#c)" filter="url(#a)">
                <g clip-path="url(#b)">
                    <path d="m 29.675781 48.515625 l 35.0625 -9.40625 l -2.328125 -8.699219 l -14.332031 -3.84375 l -13.496094 3.621094 l 6.941407 -25.933594 l -15.855469 -4.253906 l -21.242188 79.359375 l 15.855469 4.253906 z m 0 0" fill="#5277c3"/>
                    <path d="m 97.589844 62.410156 l 3.84375 -14.332031 l -3.621094 -13.496094 l 25.933594 6.941407 l 4.253906 -15.855469 l -79.359375 -21.242188 l -4.253906 15.855469 l 35.097656 9.394531 l 9.40625 35.0625 z m 0 0" fill="#7caedc"/>
                    <path d="m 123.578125 48.640625 l -15.855469 -4.253906 l -9.394531 35.097656 l -35.0625 9.40625 l 2.328125 8.699219 l 14.332031 3.84375 l 13.496094 -3.621094 l -6.941406 25.933594 l 15.855469 4.253906 z m 0 0" fill="#5277c3"/>
                    <path d="m 83.613281 107.71875 l -35.097656 -9.394531 l -9.40625 -35.0625 l -8.699219 2.328125 l -3.84375 14.332031 l 3.621094 13.496094 l -25.933594 -6.941407 l -4.253906 15.855469 l 79.359375 21.242188 z m 0 0" fill="#7caedc"/>
                </g>
            </g>
        </g>
    </mask>
    <mask id="e">
        <g filter="url(#a)">
            <rect fill-opacity="0.8" height="184.32" width="184.32" x="-28.16" y="-28.16"/>
        </g>
    </mask>
    <linearGradient id="f" gradientTransform="matrix(0 0.37 -0.98462 0 295.38501 -30.360001)" gradientUnits="userSpaceOnUse" x1="300" x2="428" y1="235" y2="235">
        <stop offset="0" stop-color="#f9f06b"/>
        <stop offset="1" stop-color="#f5c211"/>
    </linearGradient>
    <clipPath id="g">
        <rect height="128" width="128"/>
    </clipPath>
    <clipPath id="h">
        <rect height="128" width="128"/>
    </clipPath>
    <path d="m 29.675781 48.515625 l 35.0625 -9.40625 l -2.328125 -8.699219 l -14.332031 -3.84375 l -13.496094 3.621094 l 6.941407 -25.933594 l -15.855469 -4.253906 l -21.242188 79.359375 l 15.855469 4.253906 z m 0 0" fill="#5277c3"/>
    <path d="m 97.589844 62.410156 l 3.84375 -14.332031 l -3.621094 -13.496094 l 25.933594 6.941407 l 4.253906 -15.855469 l -79.359375 -21.242188 l -4.253906 15.855469 l 35.097656 9.394531 l 9.40625 35.0625 z m 0 0" fill="#7caedc"/>
    <path d="m 123.578125 48.640625 l -15.855469 -4.253906 l -9.394531 35.097656 l -35.0625 9.40625 l 2.328125 8.699219 l 14.332031 3.84375 l 13.496094 -3.621094 l -6.941406 25.933594 l 15.855469 4.253906 z m 0 0" fill="#5277c3"/>
    <path d="m 83.613281 107.71875 l -35.097656 -9.394531 l -9.40625 -35.0625 l -8.699219 2.328125 l -3.84375 14.332031 l 3.621094 13.496094 l -25.933594 -6.941407 l -4.253906 15.855469 l 79.359375 21.242188 z m 0 0" fill="#7caedc"/>
    <g mask="url(#d)">
        <g clip-path="url(#h)">
            <g mask="url(#e)">
                <g clip-path="url(#g)">
                    <path d="m 128 80.640625 v 47.359375 h -128 v -47.359375 z m 0 0" fill="url(#f)"/>
                    <path d="m 13.308594 80.640625 l 47.355468 47.359375 h 21.214844 l -47.359375 -47.359375 z m 42.421875 0 l 47.363281 47.359375 h 21.214844 l -47.363282 -47.359375 z m 42.429687 0 l 29.839844 29.839844 v -21.210938 l -8.628906 -8.628906 z m -98.160156 7.90625 v 21.214844 l 18.238281 18.238281 h 21.214844 z m 0 0"/>
                </g>
            </g>
        </g>
    </g>
</svg>
