<?xml version="1.0" encoding="UTF-8"?>
<svg width="1000px" height="1000px" viewBox="0 0 1000 1000" version="1.1" xmlns="http://www.w3.org/2000/svg" xmlns:xlink="http://www.w3.org/1999/xlink">
    <title>Xinux Manager</title>
    <g id="Xinux-Manager" stroke="none" stroke-width="1" fill="none" fill-rule="evenodd">
        <polygon id="Path" fill="#5277C3" fill-rule="nonzero" points="267.232527 394.990817 505 331.216201 489.210499 272.229125 392.019682 246.160351 300.499789 270.708121 347.575765 94.8400083 240.053123 66 96 604.159992 203.522642 633"></polygon>
        <polygon id="Path" fill="#7CAEDC" fill-rule="nonzero" points="727.770875 489.210499 753.839649 392.019682 729.291879 300.499789 905.159992 347.575765 934 240.053123 395.840008 96 367 203.522642 605.009183 267.232527 668.783799 505"></polygon>
        <polygon id="Path" fill="#5277C3" fill-rule="nonzero" points="904 395.840008 796.477358 367 732.767473 605.009183 495 668.783799 510.789501 727.770875 607.980318 753.839649 699.500211 729.291879 652.424235 905.159992 759.946877 934"></polygon>
        <polygon id="Path" fill="#7CAEDC" fill-rule="nonzero" points="633 796.477358 394.990817 732.767473 331.216201 495 272.229125 510.789501 246.160351 607.980318 270.708121 699.500211 94.8400083 652.424235 66 759.946877 604.159992 904"></polygon>
    </g>
</svg>