<?xml version="1.0" encoding="UTF-8"?>
<svg height="128px" viewBox="0 0 128 128" width="128px" xmlns="http://www.w3.org/2000/svg">
    <path d="m 29.675781 48.515625 l 35.0625 -9.40625 l -2.328125 -8.699219 l -14.332031 -3.84375 l -13.496094 3.621094 l 6.941407 -25.933594 l -15.855469 -4.253906 l -21.242188 79.359375 l 15.855469 4.253906 z m 0 0" fill="#5277c3"/>
    <path d="m 97.589844 62.410156 l 3.84375 -14.332031 l -3.621094 -13.496094 l 25.933594 6.941407 l 4.253906 -15.855469 l -79.359375 -21.242188 l -4.253906 15.855469 l 35.097656 9.394531 l 9.40625 35.0625 z m 0 0" fill="#7caedc"/>
    <path d="m 123.578125 48.640625 l -15.855469 -4.253906 l -9.394531 35.097656 l -35.0625 9.40625 l 2.328125 8.699219 l 14.332031 3.84375 l 13.496094 -3.621094 l -6.941406 25.933594 l 15.855469 4.253906 z m 0 0" fill="#5277c3"/>
    <path d="m 83.613281 107.71875 l -35.097656 -9.394531 l -9.40625 -35.0625 l -8.699219 2.328125 l -3.84375 14.332031 l 3.621094 13.496094 l -25.933594 -6.941407 l -4.253906 15.855469 l 79.359375 21.242188 z m 0 0" fill="#7caedc"/>
</svg>
